<svg xmlns="http://www.w3.org/2000/svg" xmlns:xlink="http://www.w3.org/1999/xlink" width="500" zoomAndPan="magnify" viewBox="0 0 375 374.999991" height="500" preserveAspectRatio="xMidYMid meet" version="1.0"><defs><g/><clipPath id="0628c89bfb"><rect x="0" width="144" y="0" height="336"/></clipPath></defs><g transform="matrix(1, 0, 0, 1, 105, 0)"><g clip-path="url(#0628c89bfb)"><g fill="#000000" fill-opacity="1"><g transform="translate(12.695357, 236.038798)"><g><path d="M 61.25 0 C 46.289062 0 33.859375 -3.890625 23.953125 -11.671875 C 14.046875 -19.453125 9.09375 -31.53125 9.09375 -47.90625 C 9.09375 -56 11.972656 -66.054688 17.734375 -78.078125 C 23.492188 -90.109375 33.550781 -102.796875 47.90625 -116.140625 L 39.125 -124.015625 L 54.890625 -142.828125 C 65.398438 -134.535156 75.101562 -125.640625 84 -116.140625 C 92.894531 -106.640625 100.070312 -96.53125 105.53125 -85.8125 C 110.988281 -75.101562 113.71875 -63.785156 113.71875 -51.859375 C 113.71875 -47.203125 112.90625 -41.941406 111.28125 -36.078125 C 109.664062 -30.222656 106.9375 -24.515625 103.09375 -18.953125 C 99.257812 -13.390625 93.90625 -8.835938 87.03125 -5.296875 C 80.15625 -1.765625 71.5625 0 61.25 0 Z M 61.25 -24.859375 C 71.363281 -24.859375 79.046875 -27.4375 84.296875 -32.59375 C 89.554688 -37.75 92.1875 -44.570312 92.1875 -53.0625 C 92.1875 -57.71875 91.476562 -62.570312 90.0625 -67.625 C 88.644531 -72.675781 85.8125 -78.179688 81.5625 -84.140625 C 77.320312 -90.109375 70.957031 -96.734375 62.46875 -104.015625 C 53.164062 -94.910156 45.9375 -85.503906 40.78125 -75.796875 C 35.625 -66.097656 33.046875 -57.613281 33.046875 -50.34375 C 33.046875 -41.84375 35.722656 -35.46875 41.078125 -31.21875 C 46.441406 -26.976562 53.164062 -24.859375 61.25 -24.859375 Z M 61.25 -24.859375 "/></g></g></g></g></g></svg>
